<?xml version="1.0" encoding="utf-8"?>
<!-- Generator: Adobe Illustrator 16.0.0, SVG Export Plug-In . SVG Version: 6.00 Build 0)  -->
<!DOCTYPE svg PUBLIC "-//W3C//DTD SVG 1.1//EN" "http://www.w3.org/Graphics/SVG/1.1/DTD/svg11.dtd">
<svg version="1.1" xmlns="http://www.w3.org/2000/svg" xmlns:xlink="http://www.w3.org/1999/xlink" x="0px" y="0px" width="452px"
	 height="452px" viewBox="0 0 452 452" enable-background="new 0 0 452 452" xml:space="preserve">
<g id="Layer_2">
	<path fill="#52134B" d="M274.736,162.927c-3.728,18.662-49.429,38.909-59.235,49.573c-24.272,26.396-34.884,64.201-73.569,64.201
		c-73.346,0-132.805-59.459-132.805-132.805c0-73.346,59.459-132.805,132.805-132.805
		C215.277,11.091,290.591,83.541,274.736,162.927z"/>
</g>
<g id="Layer_1">
	<g>
		<path fill="none" d="M0,289c0-44.333,0-88.667,0-133c1.339,7.497,2.392,15.06,4.063,22.48
			c12.971,57.57,64.201,103.476,122.827,109.44c12.114,1.232,24.46,0.18,36.938,0.18c0,1.616,0.106,2.598-0.017,3.55
			c-1.79,13.824-1.598,27.66,1.27,41.263c12.064,57.243,46.012,95.106,101.698,113.038c9.412,3.031,19.464,4.083,29.22,6.049
			c-98.542,0-197.085,0-296,0c0-33.666,0-67.333,0-101c0.32,1.104,0.737,2.188,0.95,3.313c5.267,27.848,26.844,48.86,54.854,51.732
			c14.028,1.438,28.287,0.628,42.442,0.827c1.673,0.023,3.346,0.003,5.019,0.003c0.08,0.417,0.16,0.834,0.239,1.252
			c-9.456,9.376-18.912,18.752-27.917,27.681c4.234,4.478,8.301,8.775,11.456,12.11c17.191-16.896,34.356-33.765,51.407-50.521
			c-16.854-16.699-33.873-33.563-50.589-50.126c-3.895,3.908-8.059,8.087-13.322,13.369c9.331,9.124,18.887,18.468,28.479,27.847
			c-14.611,0-29.304,1.002-43.808-0.225c-24.404-2.064-41.005-21.248-41.149-45.846c-0.093-15.833-0.019-31.667-0.019-47.5
			c0-1.768,0-3.535,0-5.917C11.591,289,5.796,289,0,289z"/>
		<path fill="none" d="M452,163c0,44.333,0,88.667,0,133c-0.641-3.916-1.322-7.826-1.913-11.75
			c-10.976-72.951-79.238-127.021-152.956-121.135c-2.899,0.232-5.791,0.551-7.964,0.76c0-6.414-0.046-12.224,0.007-18.033
			c0.589-64.753-41.678-121.865-103.926-139.886C175.722,3.199,165.76,1.947,156,0c98.666,0,197.334,0,296,0
			c0,33.667,0,67.333,0,101c-0.323-1.106-0.749-2.194-0.954-3.324c-5.021-27.604-26.818-48.831-54.854-51.728
			c-14.024-1.448-28.284-0.624-42.438-0.82c-1.666-0.021-3.332-0.003-4.998-0.003c-0.084-0.427-0.168-0.854-0.252-1.279
			c9.475-9.354,18.949-18.709,27.967-27.611c-4.289-4.526-8.359-8.821-11.514-12.15c-17.171,16.929-34.31,33.821-51.327,50.6
			c16.78,16.644,33.788,33.515,50.458,50.049c3.936-3.937,8.107-8.107,13.492-13.49c-9.404-9.063-19.026-18.338-29.106-28.053
			c13.464,0,26.415-0.175,39.36,0.037c26.856,0.438,45.993,19.952,46.109,46.862c0.067,15.665,0.014,31.331,0.015,46.996
			c0,1.769,0,3.535,0,5.916C440.408,163,446.203,163,452,163z"/>
		<path fill="#52134B" d="M156,0c9.76,1.947,19.722,3.199,29.248,5.956c62.249,18.021,104.515,75.133,103.926,139.886
			c-0.053,5.811-0.007,11.619-0.007,18.033c2.173-0.209,5.063-0.526,7.964-0.76c73.718-5.888,141.98,48.184,152.956,121.135
			c0.591,3.924,1.272,7.834,1.913,11.75c0,7.667,0,15.334,0,23c-0.303,1.282-0.747,2.551-0.886,3.851
			c-6.267,59.283-49.026,109.176-106.752,124.204c-8.319,2.166-16.901,3.322-25.362,4.946c-7.666,0-15.334,0-23,0
			c-9.756-1.967-19.808-3.019-29.22-6.05c-55.687-17.932-89.634-55.795-101.698-113.038c-2.867-13.603-3.06-27.438-1.27-41.263
			c0.124-0.952,0.017-1.934,0.017-3.55c-12.479,0-24.825,1.054-36.938-0.18C68.265,281.956,17.033,236.052,4.063,178.48
			C2.392,171.059,1.339,163.497,0,156c0-7.667,0-15.333,0-23c0.312-1.447,0.763-2.883,0.914-4.348
			C6.834,71.206,48.503,21.521,104.267,5.912C113.66,3.283,123.413,1.938,133,0C140.667,0,148.333,0,156,0z M307.504,180.882
			c-70.063-0.06-126.47,56.16-126.611,126.19c-0.142,69.973,56.17,126.648,126.06,126.876
			c70.012,0.229,126.979-56.551,126.992-126.569C433.956,237.49,377.434,180.941,307.504,180.882z M144.547,271.465
			c6.132-0.517,12.264-1.026,18.395-1.555c3.379-0.29,5.303-1.589,6.544-5.318c15.803-47.439,47.518-79.202,94.948-95.062
			c3.591-1.2,5.433-2.862,5.438-6.424c0.021-12.614,1.508-25.465-0.354-37.805C259.398,58.238,199.6,12.324,131.916,18.798
			C69.609,24.757,20.844,76.155,18.149,138.708C15.022,211.265,71.996,270.963,144.547,271.465z"/>
		<path fill="#52134B" d="M452,163c-5.797,0-11.592,0-18.043,0c0-2.381,0-4.147,0-5.916c-0.001-15.665,0.055-31.331-0.014-46.996
			c-0.116-26.91-19.253-46.424-46.109-46.862c-12.945-0.212-25.896-0.037-39.36-0.037c10.08,9.715,19.702,18.988,29.106,28.053
			c-5.385,5.383-9.558,9.555-13.492,13.49c-16.67-16.534-33.678-33.405-50.458-50.049c17.019-16.777,34.156-33.671,51.327-50.6
			c3.153,3.329,7.225,7.624,11.514,12.15c-9.018,8.902-18.492,18.257-27.967,27.611c0.084,0.427,0.168,0.854,0.252,1.279
			c1.666,0,3.332-0.02,4.998,0.003c14.153,0.196,28.414-0.628,42.438,0.82c28.034,2.896,49.831,24.122,54.854,51.728
			c0.204,1.13,0.631,2.218,0.953,3.324C452,121.667,452,142.333,452,163z"/>
		<path fill="#52134B" d="M0,289c5.796,0,11.591,0,18.042,0c0,2.382,0,4.149,0,5.917c0,15.833-0.074,31.667,0.019,47.501
			c0.146,24.597,16.745,43.779,41.149,45.845c14.504,1.227,29.197,0.225,43.808,0.225c-9.591-9.379-19.147-18.723-28.479-27.847
			c5.264-5.282,9.428-9.461,13.322-13.369c16.716,16.563,33.734,33.427,50.589,50.126c-17.051,16.757-34.216,33.626-51.407,50.521
			c-3.155-3.335-7.222-7.635-11.456-12.111c9.005-8.929,18.461-18.305,27.917-27.681c-0.08-0.417-0.16-0.834-0.239-1.251
			c-1.673,0-3.346,0.021-5.019-0.004c-14.155-0.199-28.414,0.611-42.442-0.827c-28.01-2.872-49.587-23.886-54.854-51.732
			C0.738,353.188,0.321,352.103,0,351C0,330.334,0,309.668,0,289z"/>
		<path fill="none" d="M319,452c8.461-1.623,17.043-2.779,25.362-4.945c57.726-15.028,100.485-64.921,106.752-124.204
			c0.139-1.3,0.583-2.567,0.886-3.851c0,44.333,0,88.667,0,133C407.665,452,363.334,452,319,452z"/>
		<path fill="none" d="M133,0c-9.587,1.938-19.34,3.283-28.733,5.912C48.503,21.521,6.834,71.206,0.914,128.652
			C0.763,130.117,0.312,131.552,0,133C0,88.75,0,44.5,0,0C44.333,0,88.667,0,133,0z"/>
		<path fill="none" d="M307.504,180.882c69.93,0.061,126.452,56.608,126.439,126.497c-0.013,70.02-56.98,126.798-126.992,126.569
			c-69.89-0.228-126.2-56.903-126.06-126.876C181.034,237.042,237.441,180.822,307.504,180.882z M303.799,230.137
			c-8.814,3.795-17.471,6.02-24.355,10.796c-14.474,10.041-20.029,24.545-17.557,42.236c2.223,15.905,13.303,22.418,26.816,26.748
			c4.377,1.401,10.475,1.621,12.623,4.636c2.224,3.12,0.653,8.977,0.663,13.637c0.025,12.771,0.01,25.541,0.01,38.386
			c-17.574-2.906-24.227-10.413-27.718-30.939c-5.347,0-10.718,0-16.396,0c0.416,10.436,3.027,19.717,8.886,27.967
			c8.737,12.304,20.946,18.53,36.257,19.839c0,5.489,0,10.572,0,15.527c3.779,0,6.992,0,10.603,0c0-4.104,0.146-7.753-0.045-11.386
			c-0.16-3.059,0.725-4.229,4.068-4.616c18.237-2.112,31.192-11.434,38.014-28.785c6.957-17.702-0.564-38.456-17.488-46.997
			c-5.754-2.905-11.917-5.128-18.088-7.037c-3.906-1.208-5.562-2.751-5.424-7.142c0.359-11.482,0.121-22.984,0.121-34.479
			c0-3.101,0-6.199,0-9.692c13.364,2.633,19.982,10.899,22.461,22.853c5.778,0,11.151,0,16.801,0
			c-4.869-21.558-15.854-36.528-39.398-39.625c0-4.465,0-8.703,0-13.003c-3.875,0-7.132,0-10.852,0
			C303.799,223.453,303.799,227.555,303.799,230.137z"/>
		<path fill="none" d="M144.547,271.465c-72.551-0.502-129.524-60.199-126.398-132.757c2.695-62.553,51.46-113.951,113.768-119.91
			c67.685-6.474,127.482,39.44,137.602,106.505c1.861,12.34,0.375,25.189,0.354,37.805c-0.006,3.562-1.848,5.224-5.438,6.424
			c-47.431,15.858-79.146,47.621-94.948,95.062c-1.241,3.729-3.165,5.028-6.544,5.318
			C156.811,270.438,150.679,270.948,144.547,271.465z M190.438,84.574c-24.424-19.285-67.972-20.966-85.932,20.885
			c-2.869,6.686-4.826,13.762-7.227,20.716c-3.453,0.347-7.929-0.468-10.414,1.387c-2.671,1.99-3.472,6.486-5.508,10.771
			c3,0,5.1,0,7.198,0c2.278,0,4.557,0,6.988,0c0,3.611,0,6.521,0,8.961c-3.437,0.933-7.267,0.904-9.303,2.803
			c-2.313,2.155-3.023,6.031-4.768,9.908c5.56,0,10.299,0,14.783,0c1.705,6.5,2.969,12.53,4.867,18.354
			c11.473,35.201,47.226,49.824,79.895,32.715c1.607-0.842,3.879-2.412,3.982-3.782c0.442-5.878,0.188-11.809,0.188-18.646
			c-2.259,1.924-3.72,3.186-5.2,4.425c-11.99,10.044-28.857,12.388-41.475,5.769c-11.571-6.069-22.278-26.213-20.954-39.804
			c12.777,0,25.589,0.059,38.399-0.073c1.593-0.016,3.875-0.561,4.625-1.675c1.873-2.788,3.048-6.045,4.9-9.95
			c-17.041,0-33.097,0-49.235,0c0-3.642,0-6.693,0-10.154c2.149,0,3.955,0,5.761,0c13.997,0,27.994,0.051,41.989-0.069
			c1.624-0.014,3.985-0.479,4.713-1.587c1.835-2.794,2.933-6.072,4.682-9.942c-19.385,0-37.782,0-56.705,0
			c2.772-15.339,7.666-29.015,21.823-36.253c16.197-8.28,29.835-1.235,42.365,9.902C184.145,94.226,187.218,89.513,190.438,84.574z"
			/>
		<path fill="#52134B" d="M303.799,230.137c0-2.582,0-6.685,0-11.08c3.72,0,6.977,0,10.852,0c0,4.3,0,8.538,0,13.003
			c23.546,3.097,34.529,18.067,39.398,39.625c-5.648,0-11.021,0-16.801,0c-2.479-11.952-9.097-20.22-22.461-22.853
			c0,3.493,0,6.593,0,9.692c0,11.495,0.238,22.997-0.121,34.479c-0.138,4.391,1.518,5.934,5.424,7.142
			c6.171,1.909,12.334,4.132,18.088,7.037c16.924,8.541,24.445,29.295,17.488,46.997c-6.82,17.353-19.775,26.673-38.014,28.785
			c-3.345,0.388-4.229,1.559-4.068,4.616c0.19,3.633,0.045,7.281,0.045,11.386c-3.609,0-6.822,0-10.603,0c0-4.955,0-10.038,0-15.527
			c-15.311-1.309-27.52-7.535-36.257-19.839c-5.857-8.25-8.47-17.531-8.886-27.967c5.68,0,11.051,0,16.397,0
			c3.49,20.526,10.143,28.033,27.717,30.939c0-12.845,0.017-25.614-0.009-38.386c-0.011-4.66,1.56-10.517-0.664-13.637
			c-2.148-3.015-8.246-3.233-12.623-4.637c-13.515-4.329-24.595-10.842-26.816-26.747c-2.474-17.691,3.083-32.195,17.557-42.236
			C286.328,236.156,294.984,233.932,303.799,230.137z M314.016,318.12c0,16.386,0,32.744,0,49.143
			c16.791-1.775,24.853-9.988,24.967-25.083C339.082,329.142,329.611,319.951,314.016,318.12z M301.818,249.741
			c-13.705,0.455-21.669,8.271-22.411,21.488c-0.724,12.902,7.795,22.281,22.411,24.522
			C301.818,280.506,301.818,265.282,301.818,249.741z"/>
		<path fill="#FCCE00" d="M190.438,84.574c-3.221,4.938-6.293,9.651-9.559,14.658c-12.53-11.139-26.168-18.185-42.365-9.902
			c-14.157,7.238-19.05,20.914-21.823,36.253c18.923,0,37.32,0,56.705,0c-1.749,3.87-2.846,7.148-4.682,9.942
			c-0.728,1.105-3.089,1.573-4.713,1.587c-13.995,0.12-27.992,0.069-41.989,0.069c-1.806,0-3.611,0-5.761,0
			c0,3.461,0,6.514,0,10.154c16.139,0,32.194,0,49.235,0c-1.853,3.905-3.027,7.162-4.9,9.95c-0.75,1.114-3.032,1.659-4.625,1.675
			c-12.811,0.131-25.622,0.073-38.399,0.073c-1.325,13.591,9.382,33.733,20.954,39.804c12.616,6.619,29.483,4.275,41.476-5.769
			c1.479-1.239,2.94-2.501,5.199-4.425c0,6.838,0.254,12.769-0.188,18.646c-0.104,1.37-2.375,2.94-3.982,3.782
			c-32.669,17.109-68.422,2.486-79.895-32.715c-1.898-5.824-3.162-11.854-4.867-18.354c-4.484,0-9.224,0-14.783,0
			c1.744-3.877,2.453-7.753,4.768-9.908c2.036-1.897,5.866-1.87,9.303-2.803c0-2.438,0-5.35,0-8.961c-2.432,0-4.709,0-6.988,0
			c-2.099,0-4.198,0-7.198,0c2.036-4.285,2.837-8.782,5.508-10.771c2.485-1.854,6.961-1.04,10.415-1.387
			c2.398-6.955,4.356-14.03,7.226-20.716C122.466,63.608,166.014,65.289,190.438,84.574z"/>
		<path fill="none" d="M314.016,318.12c15.596,1.831,25.066,11.021,24.967,24.06c-0.114,15.095-8.176,23.308-24.967,25.083
			C314.016,350.864,314.016,334.506,314.016,318.12z"/>
		<path fill="none" d="M301.818,249.741c0,15.541,0,30.765,0,46.012c-14.616-2.241-23.135-11.62-22.411-24.522
			C280.149,258.012,288.113,250.196,301.818,249.741z"/>
	</g>
	<g id="Layer_3">
		<circle fill="none" stroke="#FCCE00" stroke-width="24.3464" stroke-miterlimit="10" cx="305.976" cy="305.911" r="134.842"/>
	</g>
</g>
</svg>
