<?xml version="1.0" encoding="utf-8"?>
<!-- Generator: Adobe Illustrator 16.0.0, SVG Export Plug-In . SVG Version: 6.00 Build 0)  -->
<!DOCTYPE svg PUBLIC "-//W3C//DTD SVG 1.1//EN" "http://www.w3.org/Graphics/SVG/1.1/DTD/svg11.dtd">
<svg version="1.1" xmlns="http://www.w3.org/2000/svg" xmlns:xlink="http://www.w3.org/1999/xlink" x="0px" y="0px" width="750px"
	 height="333px" viewBox="0 0 750 333" enable-background="new 0 0 750 333" xml:space="preserve">
<g id="BACKGROUND">
</g>
<g id="OBJECTS">
	<g>
		
			<ellipse transform="matrix(-0.8434 0.5372 -0.5372 -0.8434 328.7576 141.3632)" fill="#FFAA02" cx="143.781" cy="118.585" rx="5.881" ry="7.707"/>
		<path fill="#1B3234" d="M65.092,177.226c7.673-3.331,14.96-7.438,22.518-11c9.605-4.526,19.987-7.629,30.594-8.458
			c3.361,5.71,7.886,10.338,13.345,14.088c5.021,3.449,10.416,5.829,16.649,5.934c8.891,0.149,17.767-6.417,20.162-15.025
			c0.421-1.514,0.737-3.058,1.102-4.588c2.792-0.395,5.583-0.795,8.376-1.184c3.182-0.442,6.307-1.017,9.336-2.213
			c6.626-2.618,13.261-5.2,19.621-8.432c3.51,5.975,7.142,11.879,10.375,18.013c3.563,6.76,6.733,13.712,10.054,20.591
			c-0.393,0.982-1.109,1.698-1.909,2.357c-1.335,1.102-2.607,2.285-3.991,3.32c-0.995,0.744-1.101,1.467-0.685,2.615
			c3.867,10.665,7.294,22.342,6.634,33.808c-0.852,14.796-10.782,25.661-24.001,31.381c-30.936,13.386-72.903,13.386-93.047-17.511
			c-4.384-6.725-8.989-13.304-13.46-19.972c-0.591-0.881-1.104-1.325-2.276-1.065c-2.841,0.628-5.708,1.178-8.589,1.574
			c-2.251,0.31-4.473,0.971-6.783,0.764c-1.48-2.965-3.371-5.686-5.117-8.489c-6.333-10.167-11.917-20.773-18.208-30.965
			c-0.163-0.264-0.244-0.577-0.364-0.867c0.403-0.243,0.794-0.511,1.212-0.726C59.407,179.753,62.238,178.465,65.092,177.226z"/>
		<path fill="#D8A09C" d="M79.116,222.225c-1.48-2.965-3.371-5.686-5.117-8.489c-6.333-10.167-11.917-20.773-18.208-30.965
			c-0.163-0.264-0.245-0.577-0.364-0.867c-11.187,5.209-21.788,11.316-30.609,20.116c-3.309,3.301-6.336,6.854-7.889,11.351
			c-2.38,6.893-0.771,13.342,2.553,19.508c2.63,4.879,6.613,8.565,10.812,12.058c9.832,8.175,20.281,15.463,31.345,21.865
			c6.606,3.823,13.123,7.806,19.97,11.205c3.484,1.729,6.455,4.169,9.225,6.899c3.193,3.146,7.036,4.939,11.597,5.077
			c1.8,0.054,3.442-0.363,4.878-1.392c1.068-0.766,2.165-1.171,3.487-1.19c2.459-0.037,4.686-0.633,5.982-3.027
			c0.309-0.569,0.839-0.662,1.427-0.551c0.541,0.103,1.087,0.189,1.618,0.33c0.901,0.238,1.818,0.236,2.366-0.561
			c0.593-0.863,0.742-1.901,0.285-2.924c-0.505-1.131-1.422-1.916-2.448-2.493c-5.213-2.932-10.38-5.97-15.896-8.306
			c-1.656-0.701-3.028-1.57-4.147-2.961C90,254.499,78.874,243.131,67.854,231.667c-1.854-1.929-3.785-3.785-5.672-5.683
			c-0.424-0.426-1.002-0.765-1.021-1.704c1.821-0.512,3.688-0.564,5.542-0.687C70.86,223.32,75.02,223.059,79.116,222.225z"/>
		<path fill="#D8A09C" d="M206.795,146.349c3.509,5.975,7.141,11.879,10.374,18.013c3.563,6.76,6.733,13.712,10.054,20.591
			c0.147-0.053,0.318-0.073,0.438-0.163c8.031-6.085,16.045-12.146,22.543-20.011c3.629-4.393,7.086-8.774,9.567-13.967
			c2.754-5.766,1.932-10.787-2.018-15.568c-3.365-4.073-6.932-7.946-10.754-11.601c-12.65-12.098-25.867-23.534-39.62-34.359
			c-3.155-2.483-6.066-5.271-9.319-7.639c-0.885-0.644-1.28-1.378-1.217-2.586c0.129-2.446-0.312-4.868-0.98-7.229
			c-0.788-2.785-2.587-4.753-5.326-5.547c-3.716-1.079-7.309-2.471-10.926-3.815c-0.295-0.109-0.603-0.185-0.899-0.291
			c-4.112-1.467-6.104,1.319-5.84,4.806c0.161,2.121,1.164,3.912,2.063,5.74c0,0-0.775,5.177-0.892,5.553
			c-0.859,5.079-0.028,8.142,4.8,11.562c1.559,1.104,2.898,2.379,4.021,3.942c10.25,14.265,20.531,28.507,30.805,42.755
			c0.23,0.319,0.48,0.625,0.713,0.942c0.535,0.727,0.527,1.281-0.158,2.046C211.965,142.047,209.725,144.565,206.795,146.349z"/>
		<path fill="#D8A09C" d="M132.64,149.582c2.681-7.225-1.945-14.535-4.871-21.428c-0.193-0.568-0.39-1.134-0.602-1.695
			c2.933,1.167,4.603,3.591,5.798,6.506c0.395,0.962,0.759,1.962,0.508,2.967c-0.276,1.107,0.304,1.75,0.872,2.517
			c4.174,5.643,9.743,9.458,16.037,12.337c-0.594,2.158-0.381,2.587,1.647,3.66c5.462,2.891,11.348,3.77,17.434,3.731
			c-0.365,1.53-0.68,3.074-1.102,4.588c-2.395,8.608-11.271,15.174-20.162,15.025c-6.233-0.105-11.628-2.485-16.649-5.934
			c-5.359-3.681-9.815-8.212-13.157-13.778C124.268,157.493,130.813,154.506,132.64,149.582z"/>
		<path fill="#1B3234" d="M126.103,126.102c3.61,0.965,5.529,3.612,6.862,6.863c0.395,0.962,0.759,1.962,0.508,2.967
			c-0.276,1.107,0.304,1.75,0.872,2.517c4.174,5.643,9.743,9.458,16.037,12.337c0.675-0.082,1.213,0.283,1.766,0.568
			c4.215,2.169,8.633,2.275,13.09,1.087c9.494-2.531,11.548-13.368,7.75-19.278c-2.495-3.88-5.622-6.242-10.199-6.677
			c-0.547-0.052-1.09-0.208-1.636-0.216c-4.67-0.067-9.248-0.599-13.563-2.549c-0.613,1.272-1.199,2.557-1.844,3.811
			c-0.608,1.184-1.222,2.363-2.231,3.292c-2.119,1.949-4.072,2.042-6.284,0.24c-2.901-2.363-4.626-5.512-5.775-8.977
			c-0.849-2.561,0.363-4.864,2.855-5.92c1.603-0.679,3.317-0.927,4.989-1.343c-3.223-4.174-8.345-4.469-11.727-0.668
			c-1.217,1.368-2.138,2.891-2.713,4.656C123.984,121.49,124.197,123.925,126.103,126.102z"/>
		<path fill="#D8A09C" d="M139.299,114.822c-1.671,0.417-3.386,0.665-4.989,1.343c-2.492,1.056-3.704,3.359-2.855,5.92
			c1.149,3.465,2.874,6.614,5.775,8.977c2.212,1.802,4.166,1.709,6.284-0.24c1.009-0.929,1.623-2.108,2.231-3.292
			c0.645-1.254,1.231-2.539,1.844-3.811c-2.168-1.609-3.896-3.617-5.434-5.826C141.358,116.748,140.534,115.582,139.299,114.822z"/>
		<path fill="#1B3234" d="M123.674,122.873c-1.374-4.044,0.95-8.379,3.584-11.741s5.797-6.671,6.437-10.894
			c0.58-3.833-0.993-8.096,0.958-11.446c2.73-4.688,8.542-5.826,13.002-2.85c11.093,7.4-0.214,24.731-8.836,28.729
			c-1.605,0.744-3.325,1.238-4.872,2.096c-1.546,0.858-2.959,2.185-3.352,3.91c-0.467,2.052,0.219,5.287-2.737,5.77
			C125.841,126.777,124.247,124.56,123.674,122.873z"/>
		<path fill="#D8A09C" d="M94.812,263.544c5.439,3.211,12.027,3.678,18.342,3.791c0.849,0.015,1.729,0.032,2.494,0.4
			c2.012,0.968,2.242,3.723,1.963,5.938c-0.176,1.396-0.616,3.007-1.926,3.52c-0.62,0.243-1.313,0.178-1.972,0.087
			c-4.66-0.642-9.164-2.399-13.026-5.084c-1.071-0.744-2.123-1.593-2.729-2.747c-0.606-1.154-0.667-2.682,0.167-3.685"/>
		
			<ellipse transform="matrix(-0.8434 0.5373 -0.5373 -0.8434 309.2787 176.5227)" fill="#FFAA02" cx="128.916" cy="133.33" rx="5.882" ry="7.707"/>
		<g>
			<path fill="#FFAA02" d="M110.535,104.823c2.45-4.012,7.294-5.333,11.721-4.324c3.609,0.823,6.531,2.936,9.13,5.437
				c-0.6,0.769-1.206,1.533-1.808,2.3c-1.98-1.961-4.184-3.699-6.835-4.575c-4.528-1.497-9.997,0.223-10.673,5.495
				c-0.566,4.414,3.828,7.898,6.533,10.77l9.495,10.08c1.298,1.378-1.074,3.122-2.357,1.759c-4.56-4.841-9.548-9.504-13.734-14.673
				C109.12,113.527,108.024,108.936,110.535,104.823z"/>
		</g>
		<path fill="#1B3234" d="M179.817,58.251c3.244,5.235,9.426,16.284,11.964,20.847c0.669,1.204,0.445,2.703-0.543,3.661
			l-3.725,3.612c-1.298,1.258-3.399,1.115-4.515-0.307l-14.726-18.78c-1.011-1.29-0.82-3.147,0.432-4.205l6.566-5.544
			C176.688,56.338,178.839,56.673,179.817,58.251z"/>
		<path fill="#D8A09C" d="M179.627,80.744c0.367-1.445,0.463-2.958,0.282-4.438c-0.169-1.38-0.605-2.778-1.547-3.802
			c-0.57-0.619-1.461-1.095-2.237-0.77c-0.865,0.362-1.09,1.462-1.195,2.395c-0.18,1.589-0.359,3.178-0.538,4.768
			c-0.204,1.808-0.361,3.806,0.707,5.278c2.199,3.028,9.853,3.535,6.387-1.688C181.387,82.337,179.725,80.358,179.627,80.744z"/>
		<g>
			<path fill="#FFAA02" d="M189.349,84.259c8.89,8.421,21.588,12.834,27.958,23.793c2.514,4.326,4,9.521,2.803,14.499
				c-1.147,4.77-4.599,8.384-8.641,10.95c-9.737,6.183-24.861,7.776-26.854,21.505c-2.032,13.995,9.247,25.644,13.208,38.264
				c3.431,10.931,3.162,23.503-4.038,32.918c-7.106,9.292-20.823,12.894-32.057,12.676c-11.216-0.218-20.487-6.728-26.872-15.608
				c-7.479-10.404-10.444-22.907-13.737-35.077c-2.024-7.479-3.97-15.869-8.252-22.438c-2.12-3.251-5.009-4.737-8.132-6.815
				c-2.037-1.355-3.633-3.086-4.154-5.536c-1.091-5.131,2.373-9.985,7.037-11.795c2.658-1.032,5.601-1.213,8.412-0.876
				c1.78,0.213,3.499,0.755,5.275,0.978c0.715,0.089,1.858,0.201,2.661,0.012c1.946-0.457,4.463-2.964,2.523-4.93
				c-0.657-0.666,0.253-1.823,0.917-1.149c2.249,2.28,0.932,5.869-1.834,7.118c-2.024,0.913-4.346,0.457-6.429,0.045
				c-3.692-0.731-7.348-1.212-10.978,0.168c-3.227,1.227-5.69,3.934-6.208,7.396c-0.592,3.958,1.9,6.368,5.048,8.236
				c4.608,2.735,7.386,6.153,9.542,11.065c9.358,21.315,9.056,52.086,32.356,64.461c5.648,2.999,11.895,3.731,18.2,3.001
				c6.604-0.765,13.576-2.442,19.23-6.068c11.089-7.112,13.9-21.179,11.175-33.338c-2.792-12.462-12.104-22.45-14.197-35.043
				c-0.804-4.839-0.441-10.04,2.009-14.377c2.35-4.16,6.353-6.905,10.533-9.003c5.475-2.748,11.507-4.455,16.474-8.154
				c5.843-4.352,8.1-11.032,5.722-17.978c-4.697-13.719-19.86-18.503-29.619-27.748C187.749,84.762,188.661,83.607,189.349,84.259
				L189.349,84.259z"/>
		</g>
		<path fill="#FFFFFF" d="M145.454,133.449c1.412,0.767,3.173,0.422,4.093-0.877c0.919-1.3,0.657-3.076-0.536-4.152L145.454,133.449
			z"/>
	</g>
	<g>
		<path fill="#1B3234" d="M289.497,156.497c0.224-0.991,0.822-1.931,1.579-2.502c1.241-0.935,3.027-1.082,4.403-0.362
			c-0.278-2.374-2.074-4.237-3.67-6.016c-4.133-4.605-7.613-10.112-8.335-16.258c-0.722-6.146,1.877-12.958,7.359-15.831
			c5.178-2.714,11.855-1.588,16.753-4.78c3.311-2.158,5.217-5.97,6.105-9.821c0.888-3.851,0.904-7.84,1.295-11.773
			c0.508-5.108,1.686-10.231,4.232-14.689c1.315-2.302,3.056-4.462,5.414-5.674c4.236-2.177,9.702-0.715,13.133,2.589
			c3.43,3.304,5.093,8.077,5.718,12.798c1.726,13.012-3.768,26.287-12.577,36.019c-3.022,3.339-6.512,6.385-10.683,8.087
			c-4.17,1.702-11.613,3.266-15.57,1.114c-0.496-0.27-0.982-0.578-1.53-0.715c-0.675-0.17-1.385-0.069-2.073,0.034
			c-3.09,0.46-3.681-0.432-6.771,0.028c3.058,5.221,6.228,11.196,4.613,17.027c-0.185,0.667-0.433,1.347-0.333,2.031
			c0.174,1.184,1.29,1.948,2.115,2.814c2.733,2.87,2.164,8.167-1.116,10.391c-3.032,2.056-9.023,1.06-10.059-2.883
			C289.363,157.601,289.374,157.042,289.497,156.497z"/>
		<path fill="#E0C2FF" d="M265.864,226.022c0.224-0.419,0.251-1.032,1.033-1.166c0.262,0.426,0.198,0.93,0.208,1.415
			c0.046,2.51,0.064,5.02,0.143,7.528c0.237,7.572-0.301,15.061-2.41,22.377c-0.126,0.438-0.247,0.876-0.363,1.315
			c-0.343,2.613-0.655,5.21,0.152,7.753c1.46,4.601,5.4,7.979,9.774,9.754c6.879,2.79,13.863,0.886,20.844-0.592
			c0.004-2.62,0.219-5.238,0.435-7.855c0.666-8.087,2.102-16.082,2.911-24.148c0.561-5.6,0.123-11.179-0.788-16.741
			c-1.074-6.565-2.402-13.075-4.616-19.343c-1.942-5.497-3.721-11.045-5.59-16.564c-1.331-3.929-2.169-7.979-2.628-12.082
			c-0.325-2.908-0.124-5.848,0.32-8.758c-8.253,1.083-16.52,2.85-23.784,7.125c-0.717,0.423-1.399,0.88-2.061,1.358
			c-2.341,2.343-4.233,5.124-5.546,8.467c-0.753,1.918-1.603,3.855-2.976,5.428c-3.539,4.055-5.818,8.691-6.809,13.979
			c-0.51,2.719-1.935,4.75-4.543,5.872c-3.801,1.636-6.423,4.395-7.832,8.299c-0.2,0.555-0.493,1.075-0.728,1.617
			c-0.96,2.218-2.439,4.005-4.286,5.564c-2.175,1.836-4.717,3.038-7.148,4.434c-2.006,1.152-3.905,2.419-5.179,4.414
			c-4.431,6.945-4.507,14.056-0.625,21.218c2.06,3.801,5.374,6.801,9.136,8.872c5.669,3.121,11.833,4.12,18.061,2.182
			c6.178-1.923,9.782-6.112,10.606-12.584c0.317-2.489,0.852-4.948,0.982-7.465c0.042-0.807,0.247-1.579,1.004-2.118
			c2.93-2.084,4.621-5.138,6.273-8.2C261.867,233.604,263.843,229.802,265.864,226.022z"/>
		<path fill="#E0C2FF" d="M387.243,147.549c-1.984-1.008-4.15-1.467-6.387-1.608c-4.139-0.521-12.375,0.016-12.375,0.016
			c-3.012,0.608-5.957,1.381-8.556,3.078c-3.863,2.521-5.233,5.804-4.138,10.13c0.417,1.648,0.971,3.263,1.414,4.905
			c0.508,1.881,0.397,1.974-1.576,2.134c-1.518,0.123-8.486,0.895-10.259,1.023c-4.501,0.327-9.021,0.349-13.512,0.831
			c-1.604,0.172-3.553,0.603-5.621,1.006c0.41,2.847,0.612,5.706,0.397,8.611c-0.527,7.137-3.001,13.337-4.8,20.192
			c-3.969,15.122-2.891,30.097,4.645,44.004c1.95,3.6,3.714,7.277,5.214,11.069c2.137,5.402,2.58,11.045,2.363,16.774
			c-0.098,2.584-0.212,5.167-0.502,7.739c0.258,0.025,0.516,0.055,0.774,0.077c1.521,0.135,3.061,0.219,4.606,0.251
			c0.02-0.003,0.041-0.004,0.061-0.007c2.349-0.297,4.721-0.82,6.998-1.585c1.526-0.606,3-1.345,4.402-2.264
			c6.408-4.204,9.968-9.757,8.816-17.491c-0.363-2.439-1.218-4.724-2.43-6.884c-1.64-2.923-3.515-5.701-5.424-8.467
			c-4.61-6.676-7.74-13.896-8.022-22.063c-0.15-4.356,0.391-8.726-0.16-13.076c-0.137-1.081,0.56-1.292,1.465-1.568
			c8.044-2.461,16.304-4.095,24.45-6.16c4.608-1.169,9.048-2.807,12.978-5.531c2.951-2.046,4.868-4.689,5.252-8.243
			c0.183-1.689,0.376-3.379,0.51-5.073c0.419-5.326,1.153-10.588,3.186-15.615c0.641-1.585,1.265-3.179,1.643-4.85
			C393.744,154.077,391.761,149.846,387.243,147.549z"/>
		<path fill="#1B3234" d="M287.596,189.755c1.87,5.52,3.648,11.067,5.59,16.564c2.214,6.268,3.542,12.777,4.616,19.343
			c0.911,5.563,1.349,11.142,0.788,16.741c-0.809,8.066-2.245,16.062-2.911,24.148c-0.216,2.617-0.43,5.235-0.435,7.855
			c3.194-0.676,6.387-1.263,9.57-1.27c10.44-0.023,20.687,3.094,31.049,4.165c0.274-2.57,0.379-5.152,0.468-7.737
			c0.197-5.728-0.243-11.37-2.319-16.776c-1.458-3.795-3.169-7.477-5.061-11.079c-3.148-5.998-4.923-12.482-6.488-19.021
			c-0.653-2.728-1.154-5.539-0.873-8.347c0.682-6.839,1.719-13.615,3.968-20.161c1.854-5.396,3.005-10.945,3.399-16.659
			c0.201-2.903-0.026-6.068-0.428-8.916c-5.545,0.566-5.538,0.673-11.363,0.193c-0.242-0.049-0.484-0.094-0.726-0.16
			c-0.328,5.246-1.407,10.306-4.192,14.948c-0.8,1.333-1.641,2.634-2.746,3.738c-2.367,2.367-5.385,2.47-7.882,0.16
			c-2.304-2.129-4.019-4.734-5.342-7.552c-1.856-3.955-3.244-8.07-3.606-12.474c0-0.004,0-0.007-0.001-0.011
			c-2.163,0.678-4.48,1.091-6.882,1.398c-0.167,0.021-0.335,0.045-0.502,0.067c-0.444,2.91-0.646,5.85-0.32,8.758
			C285.426,181.776,286.265,185.826,287.596,189.755z"/>
		<path fill="#D8A09C" d="M309.112,155.873c0.351-1,1.052-1.759,2.229-2.088c0.822-0.229,1.689-0.281,2.502-0.542
			c2.494-0.799,3.856-3.533,4.339-5.937c0.304-1.513,0.43-3.061,0.383-4.625c-0.136-4.624-1.703-8.806-3.817-12.833
			c-3.543,0.17-6.917-0.339-9.873-2.497c-0.595-0.435-1.223-0.449-1.886-0.184c-2.516,1.006-5.164,1.137-7.827,1.213
			c-0.686,0.02-1.464-0.136-2.104,0.48c0.346,1.148,1.073,1.998,1.609,2.944c2.739,4.831,4.374,9.851,2.625,15.436
			c-0.253,0.81-0.076,1.392,0.509,1.986c0.597,0.607,1.163,1.244,1.73,1.879c0.239,0.185,0.438,0.409,0.596,0.662
			c0.116,0.128,0.233,0.255,0.351,0.383c0.566,0.408,0.983,1.048,1.077,1.931c0.426,3.987-1.529,8.14-4.3,11.362
			c1.379,1.077,2.453,2.513,4,3.438c3.428,2.049,7.421,1.984,10.078-0.385c0.562-0.501,0.954-1.117,1.331-1.743
			C310.61,165.059,307.958,159.164,309.112,155.873z"/>
		<path fill="#D8A09C" d="M229.391,254.76c-0.666,0.913-1.358,1.809-2,2.739c-1.213,1.759-2.382,3.548-3.57,5.325
			c-0.326,0.659-2.021,3.447-2.937,3.675c-0.831,0.207-7.817,1.56-10.429,2.183c-2.687,0.641-5.299,1.495-8.102,1.499
			c-0.795,0.001-1.977,0.113-2.097,0.787c-0.32,1.797,3.345,2.224,4.532,2.158c0.23-0.013,0.496,0.046,0.57,0.346
			c0.073,0.297-0.134,0.461-0.336,0.586c-0.259,0.159-0.548,0.27-0.822,0.406c-1.098,0.548-2.203,1.082-3.288,1.654
			c-0.432,0.228-0.903,0.517-0.838,1.1c0.072,0.648,0.613,0.877,1.157,1.033c0.904,0.26,1.816,0.206,2.74,0.075
			c2.274-0.324,4.392-1.125,6.495-2.001c0.657-0.274,1.288-0.749,2.066-0.525c0.083,0.302-0.078,0.473-0.252,0.657
			c-1.31,1.39-2.7,2.675-4.388,3.615c-0.569,0.317-0.911,0.862-0.647,1.556c0.241,0.631,0.81,0.671,1.386,0.648
			c1.303-0.051,2.545-0.236,3.66-1.034c1.546-1.105,3.232-2.024,4.526-3.459c0.306-0.34,0.673-0.501,1.125-0.547
			c1.039-0.104,2.073-0.26,3.113-0.352c0.92-0.08,1.034,0.077,0.825,1.069c-0.265,1.26-0.528,2.521-0.839,3.77
			c-0.215,0.864-0.076,1.713,0.015,2.563c0.064,0.599,0.407,1.055,1.046,1.101c0.579,0.042,0.875-0.378,1.042-0.873
			c0.137-0.407,0.265-0.821,0.349-1.241c0.184-0.923,0.582-1.743,1.12-2.504c0.85-1.205,1.64-2.456,2.558-3.605
			c1.698-2.127,2.49-4.487,2.105-7.201c-0.09-0.632-0.08-1.23,0.309-1.763c0.541-0.742,0.898-1.613,1.587-2.251
			c1.445-2.579,3.369-4.796,5.265-7.038c0.826-0.977,1.632-1.982,2.334-3.049C235.616,255.73,232.465,255.457,229.391,254.76z"/>
		<path fill="#D8A09C" d="M381.283,150.767c0.043,1.663-0.204,2.07-1.853,2.637c-2.148,0.738-4.396,1.037-6.66,0.963
			c-2.686-0.087-3.945-1.233-4.206-3.795c-0.155-1.526-0.103-3.073-0.144-4.611c0.075-5.156,0.506-10.314-0.077-15.465
			c-0.114-1.009-0.517-1.654-1.442-2.304c-2.251-1.581-3.593-3.831-4.072-6.453c-0.275-1.504,0.183-2.869,1.902-3.39
			c1.05-0.318,1.341-1.002,1.321-1.831c-0.027-1.149,0.612-1.747,1.592-2.221c2.44-1.181,4.864-2.393,7.295-3.591
			c0.856-0.421,1.803-0.51,2.731-0.583c2.056-0.162,3.575,1.148,3.858,3.311c0.234,1.782-0.184,3.532-0.472,5.279
			c-0.493,2.991-1.057,5.971-1.57,8.959c-0.099,0.579-0.214,1.191-0.124,1.758C380.167,134.472,381.241,149.152,381.283,150.767z"/>
		<path fill="#F4E2C7" d="M313.831,167.565c-0.424-0.238-0.808-0.515-1.168-0.812c-0.378,0.625-0.77,1.241-1.332,1.742
			c-2.657,2.37-6.65,2.435-10.078,0.385c-1.559-0.931-2.633-2.387-4.027-3.468c-1.41,0.875-2.938,1.53-4.554,2.037
			c0,0.004,0.001,0.007,0.001,0.011c0.362,4.403,1.75,8.519,3.606,12.474c1.323,2.817,3.038,5.423,5.342,7.552
			c2.497,2.31,5.515,2.207,7.882-0.16c1.104-1.104,1.945-2.405,2.746-3.738c2.785-4.642,3.864-9.702,4.192-14.948
			C315.568,168.4,314.697,168.052,313.831,167.565z"/>
		
			<ellipse transform="matrix(0.9391 -0.3438 0.3438 0.9391 -32.753 110.74)" fill="#D8A09C" cx="295.932" cy="147.74" rx="3.291" ry="4.486"/>
		<path fill="#FFFFFF" d="M315.921,141.142c0.268,2.152-1.034,4.198-3.121,4.712c-2.087,0.515-4.19-0.69-4.955-2.72L315.921,141.142
			z"/>
		<path fill="#1B3234" d="M364.385,106.686c0.739,4.433,2.665,13.469,3.468,17.194c0.212,0.982,1.056,1.697,2.06,1.747l3.782,0.189
			c1.317,0.066,2.401-1.024,2.329-2.341l-0.958-17.39c-0.066-1.194-1.064-2.121-2.26-2.099l-6.27,0.118
			C365.181,104.13,364.162,105.35,364.385,106.686z"/>
		<path fill="#D8A09C" d="M363.386,118.729c1.188-2.007,3.64-2.848,5.329-4.456c0.359-0.342,0.691-0.725,1.121-0.974
			s0.998-0.336,1.412-0.063c0.175,0.116,0.309,0.286,0.415,0.467c0.709,1.202,0.253,2.819-0.697,3.84
			c-0.95,1.021-2.286,1.579-3.586,2.086c1.251-0.488,3.385,3.795,3.39,4.703c0.008,1.505-1.24,2.749-2.656,3.077
			C363.932,128.379,361.607,121.732,363.386,118.729z"/>
		<g>
			<g>
				<path fill="#FFAA02" d="M368.163,103.994c-0.188-9.093,10.165-12.257,16.053-5.948c4.559,4.885,4.447,12.097,4.77,18.335
					c0.396,7.646,1.736,14.758,7.964,19.812c5.863,4.757,13.396,6.708,19.859,10.444c8.837,5.108,13.478,13.974,12.695,24.204
					c-0.846,11.055-8.095,20.084-17.415,25.566c-4.118,2.423-8.617,4.207-13.259,5.322c-7.015,1.687-12.501,0.357-18.45-3.446
					c-8.358-5.345-16.304-11.771-26.14-14.167c-10.259-2.499-17.488,1.754-26.713,5.367c-6.406,2.51-19.443,3.496-19.364-6.827
					c0.038-4.975,4.874-8.567,5.77-13.36c0.682-3.646-0.414-7.557-2.846-10.344c-3.938-4.512-13.9-4.91-13.646-12.523
					c0.03-0.888-1.351-0.887-1.38,0c-0.139,4.165,2.547,6.748,6.026,8.615c3.423,1.838,7.041,2.828,9.151,6.449
					c2.597,4.457,1.417,8.613-0.961,12.806c-1.997,3.521-4.454,6.953-3.064,11.176c1.231,3.74,4.897,6.309,8.623,7.1
					c4.71,1,9.546-0.663,13.81-2.498c8.176-3.517,15.035-6.863,24.227-4.629c6.791,1.65,12.792,5.339,18.552,9.166
					c4.691,3.118,9.389,7.104,14.883,8.701c9.584,2.787,21.64-2.606,29.269-8.21c7.697-5.653,13.324-13.923,14.254-23.566
					c0.866-8.975-2.305-18.097-9.589-23.649c-7.828-5.968-18.82-7.398-25.604-14.794c-9.47-10.324-0.782-27.446-11.453-37.031
					c-6.96-6.251-17.599-1.502-17.403,7.931C366.801,104.881,368.182,104.884,368.163,103.994L368.163,103.994z"/>
			</g>
		</g>
		<g>
			<g>
				<path fill="#FFAA02" d="M295.957,145.752c-0.361,0.116-0.723,0.232-1.083,0.349c-0.709,0.228-1.167,0.957-0.964,1.698
					c0.192,0.697,0.985,1.193,1.698,0.964c0.361-0.116,0.722-0.232,1.083-0.349c0.709-0.228,1.167-0.957,0.964-1.698
					C297.463,146.02,296.669,145.523,295.957,145.752L295.957,145.752z"/>
			</g>
		</g>
		<g>
			<path fill="#FFAA02" d="M341.459,161.666c-3.556-2.744-7.631-4.6-11.596-6.599c-3.798-1.915-10.207-4.805-11.389-9.717
				c-0.032,0.613-0.344,2.31-0.491,2.779c1.118,1.973,2.849,3.222,4.749,4.511c3.795,2.574,8.012,4.35,12.035,6.488
				c4.385,2.33,8.476,5.169,11.227,9.502c2.867,4.517,4.069,9.913,3.535,15.256c-0.091,0.906,1.261,1.205,1.352,0.292
				C351.751,175.483,348.283,166.931,341.459,161.666z"/>
		</g>
	</g>
	<g>
		<path fill="#FFAA02" d="M563.721,103.277c-0.21-10.342-3.561-19.457-10.245-27.316c-2.867-3.371-6.403-5.892-10.593-7.428
			c0,0-9.551-0.868-12.007,1.27c-3.713,2.126-5.724,5.598-7.29,9.377c-2.265,5.465-2.764,11.256-2.904,17.084
			c-0.093,3.874,0.064,7.743,0.299,11.617c0.221,3.626,0.595,7.234,0.88,10.852c0.381,4.824,0.976,9.646,1.061,14.477
			c0.143,8.205-1.226,16.241-3.637,24.081c-2.519,8.192-6.447,15.498-13.449,20.808c-0.243,0.185-0.379,0.51-0.566,0.77
			c2.154,2.921,4.318,5.834,6.46,8.763c4.489,6.139,6.891,13.07,7.859,20.565c0.818,6.33,2.98,12.188,6.354,17.609
			c3.026,4.862,6.05,9.727,9.007,14.632c1.9,3.151,2.934,6.615,3.364,10.269c0.097,0.82-0.119,1.611-0.096,2.4
			c0.003,0.12-0.002,0.241-0.011,0.362c0.003-0.008,0.007-0.015,0.011-0.022c2.747-6.409,4.634-13.742,5.499-20.652
			c0.805-6.432-0.918-12.658-1.733-18.987c-1.3-5.219-2.706-10.281-2.634-15.722c0.068-5.192,0.728-10.487,2.116-15.495
			c0.921-3.322,2.298-6.446,3.879-9.483c0.668-1.828,1.381-3.639,2.172-5.419c5.593-12.586,9.944-25.578,12.945-39.022
			C562.331,120.301,563.897,111.919,563.721,103.277z"/>
		<path fill="#FFAA02" d="M496.789,278.283c-4.143,0.095-8.219-0.41-12.213-1.49c-4.112-1.111-7.826-3.014-11.01-5.872
			c-2.019-1.813-3.492-4.002-4.386-6.579c-0.495-1.425-0.579-1.466-1.771-0.632c-2.717,1.9-5.488,3.722-8.488,5.135
			c-16.222,7.639-31.729,6.132-46.614-3.649c-4.307-2.83-8.077-6.377-11.131-10.342c-7.307-9.485-11.687-24.564-3.428-34.844
			c5.054-6.291,14.803-8.736,22.21-5.282c5.502,2.565,10.193,6.223,14.232,10.704c3.441,3.818,7.301,7.076,11.825,9.526
			c0.78,0.423,1.61,0.754,2.396,1.167c1.037,0.545,1.57,0.297,1.911-0.87c0.725-2.479,1.586-4.916,2.378-7.376
			c1.633-5.073,3.287-10.141,4.877-15.227c2.364-7.56,6.991-13.354,13.571-17.671c2.378-1.561,4.944-2.716,7.569-3.779
			c2.981-1.207,6.1-2.05,8.998-3.493c0.65-0.324,1.441-0.745,2.29-0.481c-0.532,1.689-0.967,3.416-1.611,5.062
			c-3.281,8.387-3.154,17.033-2.022,25.752c0.722,5.562,2.64,10.785,4.69,15.968c1.689,4.271,3.667,8.422,5.026,12.831
			c1.414,4.587,1.654,9.164,0.646,13.848c-0.576,2.677-0.941,5.4-1.55,8.068c-0.587,2.576-0.146,4.948,0.936,7.283
			C496.447,276.746,497.083,277.383,496.789,278.283z"/>
		<path fill="#F4E2C7" d="M524.117,270.211c1.136-0.912,2.249-1.841,3.344-2.749c4.624-3.837,8.367-8.45,10.748-13.994
			c0.009-0.121,0.015-0.242,0.011-0.362c-0.023-0.789,0.192-1.58,0.096-2.4c-0.431-3.653-1.464-7.117-3.364-10.269
			c-2.957-4.905-5.98-9.77-9.007-14.632c-3.374-5.421-5.537-11.279-6.354-17.609c-0.968-7.495-3.37-14.427-7.859-20.565
			c-2.142-2.929-4.306-5.842-6.459-8.762c-1.862,0.905-3.634,1.94-5.07,3.469c0.568,1.116,1.677,1.71,2.505,2.577
			c2.702,2.827,2.892,5.013,1.106,8.552c-1.158,2.294-4.305,3.399-7.165,2.754c-3.351-0.756-5.401-3.064-5.608-6.384
			c-0.064-1.043-0.007-2.095-0.005-3.142c-0.437-0.002-0.833,0.073-1.029,0.533c-0.532,1.689-0.967,3.416-1.611,5.062
			c-3.281,8.387-3.154,17.033-2.022,25.752c0.722,5.562,2.64,10.785,4.69,15.969c1.689,4.27,3.667,8.421,5.026,12.83
			c1.414,4.587,1.654,9.164,0.646,13.848c-0.576,2.677-0.941,5.4-1.55,8.068c-0.587,2.576-0.146,4.948,0.935,7.283
			c0.328,0.707,0.963,1.344,0.669,2.244c2.185,0.184,4.337-0.286,6.44-0.648c7.16-1.233,13.958-3.604,20.354-7.109
			C523.766,270.425,523.938,270.313,524.117,270.211z"/>
		<path fill="#1B3234" d="M490.323,182.204c-0.707,0.529-1.465,0.985-2.281,1.348c-0.18,0.079-0.361,0.154-0.545,0.224
			c-4.01,1.515-8.438,0.707-12.426,2.427c-3.857,1.664-6.916,4.685-9.605,7.833c-3.98,4.658-7.589,9.908-12.937,12.901
			c-7.146,4.001-16.389,3.078-23.443-1.083c-4.291-2.531-7.859-6.141-10.686-10.219c-1.426-2.058-2.671-4.239-3.751-6.497
			c-1.008-2.104-1.236-4.333-1.213-6.669c0.046-4.771,1.647-9.753,5.424-12.873c4.864-4.018,11.981-4.006,18.036-2.234
			c6.055,1.771,11.572,5.04,17.562,7.019c2.035,0.673,4.274,1.189,6.289,0.458c3.171-1.15,4.528-4.841,5.213-8.145
			c1.039-5.008,1.45-10.184,3.227-14.98c2.188-5.902,6.676-11.155,12.625-13.21c5.949-2.056,13.293-0.349,16.956,4.771
			c2.623,3.666,3.12,8.45,2.829,12.948c-0.354,5.477-1.764,10.88-4.104,15.844C495.8,175.655,493.618,179.732,490.323,182.204z"/>
		<path fill="#D8A09C" d="M500.201,182.337c-2.029-1.417-2.577-2.591-1.733-4.354c1.483-3.097,2.478-6.279,2.256-9.754
			c-0.066-1.034,0.398-1.439,1.408-1.452c0.968-0.012,1.624-0.631,2.15-1.379c2.213-3.146,0.958-8.11-2.497-9.9
			c-0.146,0.375-0.281,0.755-0.442,1.124c-1.112,2.539-2.3,2.993-4.73,1.642c-2.057-1.144-3.453-2.917-4.029-5.2
			c-0.038-0.151-0.08-0.287-0.126-0.409c-2.353,0.304-4.734,0.07-7.031-0.543c-0.137,5.352-1.924,10.912-4.948,15.168
			c-0.777,1.094-1.877,2.301-3.149,3.404c1.075,3.963,3.637,6.771,6.965,9.045c1.958,1.337,4.284,1.794,6.366,2.824
			c0.477,0.139,0.892,0.335,0.918,0.926c0.049,1.111,0.156,2.231-0.543,3.217c-0.002,1.047-0.059,2.099,0.005,3.142
			c0.207,3.319,2.257,5.628,5.608,6.384c2.86,0.646,6.007-0.46,7.165-2.754c1.786-3.539,1.596-5.725-1.106-8.552
			C501.878,184.047,500.769,183.453,500.201,182.337z"/>
		<path fill="#D8A09C" d="M544.092,74.621c-0.318-2.046-2.001-7.483-2.229-8.258c-1.18-4.031-2.496-8.014-4.457-11.745
			c-0.431-0.819-0.207-1.556-0.062-2.342c1.072-5.78,0.831-11.565,0.031-17.346c-0.166-1.202-0.518-2.371-1.199-3.399
			c-0.322-0.487-0.752-0.886-1.41-0.648c-0.621,0.224-0.842,0.739-0.766,1.354c0.128,1.039,0.31,2.071,0.454,3.109
			c0.217,1.56,0.46,3.121,0.075,4.738c-1.084-0.244-1.016-1.067-1.128-1.741c-0.544-3.262-1.045-6.532-1.602-9.792
			c-0.162-0.95-0.402-1.895-0.712-2.807c-0.218-0.642-0.71-1.125-1.481-0.946c-0.685,0.159-0.792,0.768-0.772,1.341
			c0.053,1.53,0.07,3.069,0.26,4.584c0.291,2.316,0.716,4.615,1.083,6.921c0.062,0.39,0.206,0.89-0.237,1.061
			c-0.585,0.226-0.841-0.283-1.039-0.736c-0.193-0.444-0.344-0.907-0.546-1.346c-1.286-2.784-2.559-5.573-3.88-8.34
			c-0.792-1.658-1.746-2.161-2.968-1.686c-0.975,0.378-0.622,2.043,0.117,3.953c0.695,1.797,3.462,7.096,4.205,8.566
			c0.149,0.296,0.073,0.699-0.227,0.853c-0.433,0.221-0.775-0.072-0.982-0.434c-0.872-1.525-1.722-3.063-2.579-4.596
			c-0.319-0.56-0.604-1.144-0.965-1.674c-0.725-1.066-1.472-2.118-2.249-3.146c-0.479-0.634-1.12-0.949-1.905-0.551
			c-0.85,0.431-0.752,1.158-0.483,1.879c0.281,0.755,0.598,1.498,0.929,2.232c1.266,2.804,3.009,5.337,4.578,7.968
			c0.956,1.602,1.647,3.321,2.389,5.02c0.132,0.303,0.166,0.649-0.111,0.892c-0.277,0.243-0.612,0.139-0.89-0.019
			c-0.347-0.197-0.708-0.402-0.989-0.679c-1.246-1.231-2.877-1.765-4.415-2.451c-1.288-0.575-2.674-0.629-4.027-0.253
			c-1.108,0.307-1.352,1.198-0.548,1.998c0.505,0.503,1.139,0.901,1.768,1.251c3.125,1.74,6.044,3.708,8.121,6.727
			c0.498,0.724,3.158,3.349,4,3.639c0,0,3.511,5.18,4.109,9.176c0.187,1.249,1.301,6.488,1.588,7.954
			c1.009,0.309,2.034,0.585,3.142,0.718c1.866,0.223,3.753,0.327,5.63,0.197c0.878-0.061,1.72-0.197,2.54-0.38
			C544.2,75.163,544.134,74.893,544.092,74.621z"/>
		<path fill="#D8A09C" d="M409.259,216.72c2.214,1.535,2.723,2.736,2.17,5.326c-0.101,0.471-0.282,0.925-0.437,1.384
			c-0.771,2.285-2.075,2.749-4.145,1.357c-1.74-1.17-9.344-8.906-10.458-12.889c-0.302-0.953-1.174-1.038-1.918-1.254
			c-4.093-1.189-5.167-2.437-5.291-6.562c-0.03-0.985-0.451-1.623-0.978-2.355c-1.511-2.099-1.39-3.637,0.372-5.505
			c0.37-0.393,0.443-0.72,0.424-1.256c-0.076-2.175,0.776-2.721,2.782-1.866c0.438,0.187,0.848,0.438,1.045,0.542
			c0.471,0.103,0.565,0.019,0.579-0.192c0.058-0.878-0.029-1.879,1.008-2.255c1.002-0.363,1.652,0.388,2.298,0.987
			c1.417,1.315,2.71,2.793,4.252,3.937c2.799,2.079,3.24,4.822,2.669,7.954c-0.144,0.789-0.423,1.552-0.597,2.337
			C402.326,209.606,408.213,215.994,409.259,216.72z"/>
		<ellipse fill="#D8A09C" cx="502.127" cy="161.512" rx="3.919" ry="6.63"/>
		<path fill="#FFFFFF" d="M490.001,169.823c0.367,1.605-0.46,3.25-1.997,3.798c-1.537,0.549-3.218-0.2-3.951-1.675L490.001,169.823z
			"/>
		<path fill="#1B3234" d="M384.813,188.178c2.031,4.469,6.613,13.46,8.512,17.164c0.501,0.977,1.594,1.492,2.667,1.262l4.044-0.867
			c1.409-0.303,2.245-1.759,1.797-3.128l-5.919-18.078c-0.406-1.241-1.722-1.938-2.977-1.576l-6.583,1.894
			C384.933,185.257,384.201,186.831,384.813,188.178z"/>
		<path fill="#D8A09C" d="M395.199,195.919c-0.318-0.581-0.595-1.214-0.576-1.876c0.02-0.661,0.413-1.352,1.052-1.525
			c1.079-0.295,1.912,0.879,2.688,1.684c0.799,0.829,1.843,1.368,2.78,2.037c0.937,0.669,1.819,1.557,2.026,2.688
			C404.237,204.782,396.128,197.615,395.199,195.919z"/>
		<path fill="#D8A09C" d="M394.609,199.546c0.486,0.559,0.949,1.182,1.069,1.912c0.121,0.729-0.209,1.582-0.906,1.832
			c1.547,0.63,2.213,2.818,1.242,4.177c-0.971,1.358-3.31,1.404-4.298,0.059c-0.642-0.873-0.675-2.035-0.979-3.075
			c-0.59-2.015-3.603-5.027-1.895-7.233C390.571,194.984,393.382,198.138,394.609,199.546z"/>
		<g>
			<path fill="#F4E2C7" d="M398.916,206.008c7.158,10.9,4.912,24.388-0.862,35.356c-4.26,8.093-11.589,16.32-9.039,26.15
				c2.365,9.118,11.632,11.008,19.035,6.158c8.197-5.369,11.785-15.124,14.323-24.136c2.836-10.071,5.552-25.744,17.309-29.128
				c4.819-1.387,10.431-0.138,14.253,3.095c4.024,3.404,4.83,8.947,8.339,12.753c6.026,6.537,15.527,4.914,19.063-3.256
				c4.809-11.108-4.527-21.364-4.51-32.303c0.02-12.021,13.856-11.598,21.354-16.965c3.742-2.678,5.444-6.755,6.338-11.161
				c0.464-2.288,0.689-4.648,0.333-6.968c-0.16-1.042-0.426-2.063-0.863-3.027c-0.827-1.827-1.073-1.6,0.538-3.093
				c0.713-0.661-0.354-1.725-1.066-1.066c-0.664,0.615-1.327,1.23-1.991,1.845c-0.22,0.204-0.311,0.658-0.118,0.914
				c3.179,4.198,2.365,9.867,0.761,14.56c-1.679,4.912-5.165,7.479-9.796,9.366c-5.735,2.337-13.148,3.817-15.946,10.067
				c-4.248,9.487,4.156,20.218,4.722,29.707c0.336,5.623-1.983,12.228-7.98,13.873c-6.104,1.676-10.613-3.832-12.962-8.638
				c-1.813-3.709-3.618-6.971-7.23-9.188c-3.046-1.87-6.744-2.778-10.31-2.53c-8.583,0.598-13.743,7.737-16.814,15.081
				c-4.031,9.639-5.041,20.366-10.214,29.554c-2.697,4.789-6.717,9.438-12.083,11.236c-5.922,1.985-11.202-0.881-12.93-6.765
				c-1.716-5.841,0.72-11.557,3.606-16.567c2.711-4.709,5.678-9.193,7.708-14.264c4.083-10.2,4.544-21.968-1.665-31.423
				C399.687,204.439,398.381,205.194,398.916,206.008L398.916,206.008z"/>
		</g>
		<g>
			<path fill="#F4E2C7" d="M479.274,174.766c-3.411,8.954-15.621,7.143-23.058,9.571c-6.083,1.987-12.104,6.839-12.035,13.799
				c0.063,6.284,5.011,11.33,10.876,12.84c7.363,1.895,14.614-1.16,20.451-5.528c0.768-0.574,0.017-1.884-0.761-1.302
				c-5.855,4.382-13.338,7.569-20.646,4.972c-7.97-2.833-11.105-12.352-5.123-18.746c5.284-5.648,13.164-5.48,20.18-6.883
				c4.956-0.99,9.682-3.37,11.568-8.321C481.073,174.26,479.616,173.867,479.274,174.766L479.274,174.766z"/>
		</g>
	</g>
	<g>
		<g>
			<g>
				<path fill="#1B3234" d="M705.452,261.013c3.999-3.345,12.525-9.881,16.048-12.569c0.929-0.709,2.222-0.759,3.157-0.127
					l3.522,2.385c1.227,0.83,1.375,2.505,0.319,3.598l-13.953,14.429c-0.958,0.99-2.549,1.122-3.601,0.297l-5.515-4.325
					C704.239,263.765,704.247,262.021,705.452,261.013z"/>
				<path fill="#E0C2FF" d="M573.28,168.953c0.146,0.403,0.288,0.806,0.429,1.208c0.611,1.704,1.217,3.412,1.827,5.12
					c0.449,1.271,0.903,2.542,1.37,3.806c0.31,0.857,0.272,1.578-0.13,2.41c-0.333,0.69-0.704,1.362-1.036,2.053
					c-0.312,0.642-0.589,1.294-0.771,1.987c-0.08,0.3-0.155,0.606-0.23,0.908c-1.51,6.174-1.682,12.384-0.608,18.706
					c0.95,5.614,2.623,11.03,4.116,16.492c0.397,1.453,0.783,2.915,1.135,4.381c0.33,1.365,0.612,2.748,0.925,4.115
					c0.403,1.759,0.449,3.476,0.231,5.152c-0.262,1.957-0.89,3.864-1.749,5.721c-0.646,1.396-1.321,2.779-1.993,4.17
					c-1.079,2.248-2.137,4.5-2.988,6.84c-0.184,0.505-0.357,1.013-0.521,1.526c-1.023,3.228-1.652,6.549-1.995,9.914
					c-0.116,1.118-0.113,2.237-0.475,3.323c-0.492,1.463,0.027,2.618,1.183,3.533c1.234,0.979,2.675,1.553,4.155,2.012
					c4.78,1.469,9.619,2.714,14.52,3.698c6.596,1.324,13.2,2.606,19.846,3.619c1.7,0.261,3.404,0.5,5.112,0.72
					c8.066,1.031,16.15,1.975,24.312,1.853c0.092-0.004,0.188-0.001,0.279-0.005c1.763-0.032,3.499-0.29,5.26-0.344
					c2.565-0.085,4.457-2.491,4.342-5.073c-0.2-4.316-2.102-8.005-4.373-11.504c-3.063-4.738-6.924-8.872-10.454-13.246
					c-2.563-3.181-5.12-6.359-7.702-9.522c-1.064-1.304-1.559-2.781-1.717-4.445c-0.176-1.796-0.13-3.548,0.113-5.268
					c0.317-2.348,0.991-4.632,1.936-6.879c0.407-0.965,0.837-1.915,1.288-2.855l0.001-0.005c1.294-2.667,2.771-5.228,4.424-7.702
					c0.921-1.379,0.946-1.396,2.53-0.702c4.764,2.103,9.772,3.552,14.561,5.606c2.124,0.916,4.438,0.557,6.234-1.278
					c0.688-0.702,1.425-1.356,2.14-2.031c1.142-1.937,2.772-3.493,4.168-5.225c3.072-3.799,6.259-7.501,9.4-11.238
					c0.401-0.821,0.83-1.627,1.196-2.461c0.872-1.982,0.161-3.614-1.898-4.368c-0.659-0.245-1.342-0.421-2.015-0.621
					c-2.936-0.876-5.542-2.372-8.006-4.152c-0.175-0.119-0.344-0.243-0.517-0.373c-2.04-1.516-4.085-3.031-6.164-4.49
					c-1.025-0.729-2.06-1.438-3.109-2.13c-4.305-2.838-8.9-5.037-14.036-6.077c-3.904-0.796-7.763-1.294-11.703-0.447
					c-2.257,1.559-4.708,2.764-7.151,3.986c-1.584,0.795-3.004,1.794-4.264,3.043c-3.488,3.482-6.821,7.081-9.053,11.547
					c-0.502,1.016-1.148,1.939-2.027,2.663c-1.33,1.086-2.74,0.736-3.378-0.854c-0.373-0.918-0.432-1.909-0.405-2.9
					c0.104-4.011,0.716-7.935,1.726-11.834c1.126-4.365,2.532-8.6,4.33-12.727c0.455-1.047,1.057-1.969,1.979-2.662
					c0.568-1.71,0.021-3-1.154-4.368c-3.596-4.2-6.408-8.879-8.123-14.192c-0.583-1.794-1.391-3.536-2.256-5.225
					c-1.303-2.529-2.73-2.597-4.375-0.325c-0.286,0.394-0.604,0.766-0.904,1.152c-0.204,0.362-0.376,0.751-0.623,1.083
					c-2.231,2.972-4.208,6.148-6.54,9.026c-3.747,4.626-7.623,9.147-10.914,14.125C572.708,167.653,573.039,168.29,573.28,168.953z"
					/>
				<path fill="#FFAA02" d="M624.042,166.216c8.792,5.05,18.179,9.655,28.285,10.474c6.595,0.534,14.116-0.995,19.737-4.559
					c12.266-7.776,7.122-23.015-7.244-21.981c-7.562,0.544-15.467,3.48-18.624-5.466c-1.81-5.131-3.188-10.443-5.628-15.306
					c-3.838-7.648-10.718-13.388-19.782-12.17c-7.152,0.96-13.293,6.675-15.535,13.448c-3.197,9.664,0.649,20.653,7.626,28.064
					C619.365,163.37,622.611,165.607,624.042,166.216z"/>
				<path fill="#D8A09C" d="M568.966,119.337c1.919-3.891,4.539-7.253,7.629-10.278c4.272-4.182,8.969-7.892,13.214-12.111
					c3.936-3.911,7.878-7.838,12.326-11.195c0.581-0.438,0.942-0.998,1.246-1.656c0.833-1.804,2.057-3.072,3.464-4.425
					c1.123-1.08,2.167-2.241,3.122-3.472c0.583-0.753,1.792-2.888,3.018-2.352c0.154,0.067,0.3,0.184,0.341,0.347
					c0.032,0.129-0.006,0.264-0.047,0.39c-0.324,0.993-0.976,1.625-1.611,2.427c-0.406,0.513-0.958,1.077-0.569,1.653
					c0.277,0.411,2.257-1.864,2.501-2.092c1.128-1.057,2.241-2.13,3.365-3.192c0.474-0.448,2.083-1.873,2.598-0.354
					c0.169,0.497-0.467,1.203-0.74,1.577c-1.075,1.471-2.432,2.754-3.756,3.997c-0.386,0.362-0.778,0.718-1.168,1.075
					c-0.274,0.25-0.46,0.6-0.169,0.914c0.202,0.219,0.533,0.121,0.75-0.085c1.288-1.217,2.608-2.402,3.953-3.554
					c0.637-0.545,3.09-3.185,3.863-1.824c0.718,1.264-1.598,2.886-2.321,3.563c-1.265,1.186-2.546,2.355-3.851,3.496
					c-0.079,0.069-0.158,0.138-0.237,0.206c-0.103,0.088-0.097,0.392-0.037,0.558c0.074,0.203,0.305,0.3,0.513,0.178
					c0.838-0.493,1.698-0.962,2.437-1.591c1.018-0.733,2.1-1.378,3.164-2.041c0.82-0.511,2.732-1.92,3.298-0.305
					c0.268,0.763-0.357,1.151-0.822,1.553c-0.796,0.688-1.595,1.379-2.446,1.996c-1.366,0.988-2.817,1.862-4.147,2.894
					c-0.654,0.507-1.956,0.914-1.493,1.943c0.391,0.868,1.521,0.277,2.327,0.177c1.057-0.132,2.101-0.118,3.136,0.155
					c0.597,0.157,1.036,0.487,1.062,1.138c0.031,0.775-0.502,1.103-1.166,1.266c-0.202,0.049-0.417,0.046-0.626,0.062
					c-2.552,0.193-4.936,1.06-7.313,1.901c-1.269,0.45-2.525,0.939-3.868,0.902c-1.248-0.035-1.946,0.598-2.521,1.555
					c-3.435,5.723-7.459,11.051-11.152,16.603c-3.499,5.261-7.24,10.362-10.914,15.505c-0.528,0.739-0.538,1.348-0.174,2.128
					c0.713,1.526,1.305,3.109,2.027,4.631c1.415,2.98,2.32,6.178,3.896,9.087c-0.206,0.363-0.374,0.753-0.622,1.084
					c-2.232,2.973-4.209,6.151-6.539,9.025c-3.75,4.628-7.625,9.147-10.914,14.127c-0.693-0.275-0.778-0.949-0.985-1.532
					c-3.393-9.531-5.428-19.343-6.043-29.443C565.611,130.17,566.376,124.588,568.966,119.337z"/>
				<path fill="#D8A09C" d="M662.977,211.74c3.069-3.797,6.258-7.498,9.397-11.238c1.179,0.772,2.278,1.644,3.318,2.598
					c3.16,2.899,6.375,5.741,9.494,8.684c3.784,3.568,7.708,6.997,11.183,10.884c1.783,1.993,3.675,3.877,5.579,5.753
					c3.963,3.905,7.858,7.885,11.129,12.397c-2.239,2.008-4.233,4.291-6.337,6.435c-0.21,0.214-0.414,0.433-0.62,0.649
					c-0.269-0.384-0.586-0.749-0.972-1.085c-3.921-3.42-7.839-6.862-12.081-9.864c-7.916-5.603-15.831-11.195-23.282-17.414
					c-0.796-0.664-1.667-0.975-2.68-1.08c-2.803-0.292-5.559-0.861-8.302-1.493C659.951,215.029,661.577,213.473,662.977,211.74z"/>
				<path fill="#D8A09C" d="M599.844,192.867c-0.027,0.991,0.032,1.982,0.405,2.9c0.639,1.591,2.049,1.94,3.378,0.854
					c0.879-0.724,1.525-1.647,2.027-2.663c2.232-4.466,5.565-8.064,9.053-11.547c1.26-1.249,2.68-2.248,4.264-3.043
					c2.443-1.223,4.894-2.428,7.151-3.986c-2.91-1.39-3.948-3.711-3.07-6.823c0.208-0.741,0.426-1.475,0.861-2.119
					c0.191-0.488,0.552-0.525,1.026-0.486c1.181,0.096,2.375,0.178,3.56,0.001c1.974-0.292,3.45-1.14,4.572-2.341
					c1.121-1.196,1.893-2.743,2.469-4.441c0.853-2.517,1.561-5.088,2.4-7.618c0.128-0.387,0.254-0.786,0.309-1.204
					c0.04-0.287,0.048-0.58,0.001-0.889c-5.744-0.366-9.176-3.784-11.559-8.573c-0.746-1.51-1.378-3.079-2.082-4.613
					c-0.598-1.305-0.793-1.348-1.952-0.395c-1.817,1.5-3.145,3.399-4.351,5.393c-0.253,0.422-0.487,0.853-0.729,1.277
					c-0.398,0.699-0.82,0.831-1.495,0.256c-0.73-0.624-1.435-1.269-2.599-1.147c-1.356,0.149-2.285,0.793-2.75,1.977
					c-0.715,1.836-0.692,3.731,0.139,5.542c0.485,1.058,1.277,1.913,2.485,2.089c1.115,0.158,1.316,0.749,1.263,1.739
					c-0.111,1.922,0.543,3.955-0.867,5.678c-0.817,1.699-1.581,3.425-2.479,5.076c-0.703,1.304-1.731,2.212-3.396,1.884
					c-0.922,0.693-1.524,1.615-1.979,2.662c-1.797,4.127-3.204,8.361-4.33,12.727C600.561,184.933,599.948,188.856,599.844,192.867z
					"/>
				<path fill="#D8A09C" d="M709.522,237.031c0.607-0.619,4.082,4.263,4.724,4.845c0,0,8.586,7.78,8.608,7.8
					c1.522,1.38,1.39,3.82,0.896,5.629c-0.454,1.662-1.429,2.673-2.535,3.937c-0.571,0.652-1.027,1.896-1.012,2.763l0.052,3.203
					c0.014,0.867-0.464,1.822-1.062,2.124c-0.598,0.301-1.529-0.009-2.068-0.688l-6.301-7.94c-0.539-0.68-1.4-0.9-1.915-0.492
					c-0.514,0.409-1.338,0.181-1.831-0.508c-0.494-0.688-0.902-1.961-0.908-2.828l-0.038-5.396c-0.011-1.577-3.6-4.792-8.395-8.974
					L709.522,237.031z"/>
			</g>
			<path fill="#FFFFFF" d="M623.839,154.743c-0.511,2,0.472,4.088,2.38,4.826c1.909,0.737,4.04-0.147,5.006-1.973L623.839,154.743z"
				/>
		</g>
		
			<ellipse transform="matrix(-0.9817 -0.1907 0.1907 -0.9817 1186.2173 407.3771)" fill="#1B3234" cx="612.707" cy="146.623" rx="5.688" ry="8.021"/>
		<path fill="#1B3234" d="M633.072,163.615c0.752,1.34,1.87,2.28,3.238,2.546c3.08,0.598,6.267-2.44,7.111-6.789
			c0.845-4.35-0.973-8.359-4.053-8.958c-0.372-0.072-0.748-0.092-1.118-0.062c-0.054,0.418-0.18,0.816-0.309,1.204
			c-0.84,2.53-1.548,5.102-2.4,7.618C634.965,160.872,634.193,162.419,633.072,163.615z"/>
		<g>
			<path fill="#1B3234" d="M613.179,144.379l-0.568-0.884c1.516-0.975,2.519-2.855,2.979-5.59c0.648-3.844,1.426-7.594,3.793-11.207
				c3.352-5.119,7.776-8.038,12.794-8.443c5.187-0.418,10.658,1.438,14.637,4.966c4.383,3.885,5.224,10.157,2.045,15.251
				c-1.04,1.667-2.378,3.092-3.672,4.471c-0.513,0.547-1.045,1.113-1.546,1.682c-2.732,3.107-4.05,5.925-4.03,8.615l-1.051,0.008
				c-0.022-2.96,1.381-6.008,4.292-9.317c0.512-0.583,1.049-1.154,1.568-1.708c1.259-1.342,2.562-2.729,3.546-4.309
				c2.902-4.651,2.141-10.37-1.85-13.908c-3.77-3.341-8.95-5.1-13.855-4.704c-5.916,0.477-9.791,4.598-12,7.971
				c-2.255,3.443-3.007,7.076-3.636,10.806C616.115,141.118,614.955,143.238,613.179,144.379z"/>
		</g>
		<path fill="#F4E2C7" d="M630.43,194.53c-0.025,3.796,3.586,6.896,7.358,7.351c3.768,0.448,7.497-1.189,10.606-3.363
			c3.11-2.175,5.808-4.901,8.918-7.076c1.381-0.963,2.836-1.81,4.338-2.541c-0.175-0.119-0.344-0.243-0.517-0.373
			c-2.04-1.516-4.085-3.031-6.164-4.49c-0.498,0.027-0.999,0.042-1.498,0.047c-3.516,0.019-7.048-0.593-10.519-0.063
			c-2.538,0.386-4.963,1.381-7.139,2.741C633.029,188.508,630.448,191.24,630.43,194.53z"/>
		<path fill="#F4E2C7" d="M595.792,224.868c2.792,3.819,8.267,4.272,12.985,3.909c4.713-0.364,9.82-1.107,13.863,1.343
			c1.183,0.718,2.171,1.643,3.054,2.692c0.317-2.348,0.991-4.632,1.936-6.879c0.407-0.965,0.837-1.915,1.288-2.855l0.001-0.005
			c-0.561-0.585-1.108-1.189-1.627-1.794c-4.061-4.702-7.885-10.071-13.65-12.39c-5.784-2.334-13.087-0.732-16.942,4.173
			C594.08,216.397,593.286,221.448,595.792,224.868z"/>
		<path fill="#F4E2C7" d="M610.52,279.647c1.7,0.261,3.404,0.5,5.112,0.72c8.066,1.031,16.15,1.975,24.312,1.853
			c-0.04-0.072-0.084-0.146-0.124-0.217c-3.587-6.233-6-13.571-11.806-17.81c-2.228-1.626-5.09-2.707-7.749-1.977
			c-3.276,0.906-5.276,4.229-6.312,7.47c-1.03,3.237-1.478,6.727-3.231,9.636C610.658,279.433,610.589,279.537,610.52,279.647z"/>
		<path fill="#F4E2C7" d="M574.969,185.536c-0.08,0.3-0.155,0.606-0.23,0.908c1.57,0.106,3.15,0.35,4.657,0.609
			c4.858,0.848,10.464,1.535,14.188-1.704c3.493-3.043,3.823-8.354,3.123-12.934c-0.088-0.569-0.185-1.145-0.443-1.66
			c-0.356-0.728-0.998-1.286-1.698-1.706c-3.434-2.059-7.929-0.887-11.379,1.142c-2.641,1.548-5.014,3.566-7.649,5.089
			c0.449,1.271,0.903,2.542,1.37,3.806c0.31,0.857,0.272,1.578-0.13,2.41C576.133,182.822,575.352,184.09,574.969,185.536z"/>
		<path fill="#FFAA02" d="M655.556,198.172c0.346,1.492,0.068,3.231-1.089,4.236c-1.59,1.382-4.153,0.925-5.881,2.129
			c-2.836,1.977-1.099,8.086-5.887,7.485c-2.013-0.252-5.354-2.996-4.547-5.345c0.559-1.628,2.768-1.747,4.288-2.554
			c0.924-0.491,1.66-1.328,2.029-2.309c1.11-2.954-0.447-8.163,4.034-8.878C651.489,192.46,654.92,195.435,655.556,198.172z"/>
		<path fill="#FFAA02" d="M613.553,265.368c2.238,1.712,5.748,0.47,8.074,2.06c2.052,1.402,2.185,4.688,0.588,6.593
			c-1.597,1.904-4.414,2.467-6.822,1.853c-0.963-0.245-1.916-0.68-2.552-1.443c-0.894-1.074-1.007-2.582-1.582-3.855
			c-0.782-1.729-2.498-3.002-4.379-3.249c-1.367-0.18-2.746,0.148-4.125,0.184c-3.414,0.086-5.25-2.705-3.215-5.679
			c1.613-2.357,5.449-4.81,8.392-3.819C611.266,259.132,611.057,263.459,613.553,265.368z"/>
		<path fill="#FFAA02" d="M580.538,235.291c-0.262,1.957-0.89,3.864-1.749,5.721c-0.646,1.396-1.321,2.779-1.993,4.17
			c4.638-0.39,8.75-4.083,10.631-8.451c1.121-2.599,1.961-5.824,4.617-6.818c3.333-1.253,6.813,2.052,10.356,1.674
			c2.904-0.313,5.098-3.367,4.795-6.274c-0.296-2.911-2.769-5.346-5.622-5.98c-2.858-0.636-5.93,0.374-8.144,2.289
			c-4.093,3.542-5.298,3.404-9.719,1.052c-1.65-0.877-3.552-1.172-5.464-1.029c0.397,1.453,0.783,2.915,1.135,4.381
			c0.33,1.365,0.612,2.748,0.925,4.115C580.709,231.897,580.756,233.614,580.538,235.291z"/>
		<path fill="#FFAA02" d="M576.907,179.086c0.31,0.857,0.272,1.578-0.13,2.41c-0.333,0.69-0.704,1.362-1.036,2.053
			c1.154,0.562,2.357,0.93,3.657,0.909c1.342-0.019,2.641-0.478,3.831-1.093c2.208-1.14,4.185-2.908,5.083-5.224
			c0.899-2.31,0.533-5.196-1.273-6.896c-1.665-1.571-4.163-1.89-6.445-1.718c-2.282,0.173-4.545,0.745-6.832,0.638
			c-0.016-0.003-0.038-0.002-0.053-0.005c0.611,1.704,1.217,3.412,1.827,5.12C575.986,176.551,576.44,177.822,576.907,179.086z"/>
		<g>
			<path fill="#1B3234" d="M705.375,264.737c-7.845,6.779-19.104,9.109-28.974,5.795c-5.969-2.004-11.08-6.125-16.534-9.177
				c-4.981-2.787-10.159-5.261-15.557-7.129c-9.834-3.403-20.518-4.788-30.786-2.648c-4.913,1.023-9.547,2.889-13.835,5.489
				c-4.543,2.755-8.712,6.097-13.354,8.693c-9.073,5.076-19.607,5.238-28.794,0.266c-8.65-4.683-14.436-13.091-15.336-22.925
				c-0.89-9.716,2.815-19.932,9.937-26.639c7.865-7.408,19.628-9.929,25.809-19.273c1.344-2.032,2.326-4.313,2.719-6.726
				c0.53-3.251-0.062-6.524,0.062-9.79c0.176-4.646,2.125-9.071,4.669-12.896c5.251-7.893,14.292-15.402,24.142-15.892
				c0.833-0.042,0.938-1.353,0.093-1.311c-8.301,0.413-15.863,5.473-21.35,11.434c-2.83,3.075-5.257,6.563-6.91,10.414
				c-1.888,4.396-1.967,8.494-1.816,13.214c0.482,15.111-14.063,19.48-24.388,26.707c-7.827,5.479-12.875,14.073-14.115,23.533
				c-1.206,9.209,1.484,18.683,8.018,25.396c6.324,6.498,15.504,10.259,24.587,9.757c10.949-0.605,18.674-8.243,27.706-13.437
				c10.536-6.058,23.149-6.942,34.86-4.319c7.567,1.695,14.782,4.741,21.578,8.436c6.021,3.274,11.614,7.873,18.161,10.062
				c10.31,3.446,22.058,1.057,30.26-6.03C706.865,265.188,706.016,264.185,705.375,264.737L705.375,264.737z"/>
		</g>
	</g>
</g>
<g id="DESIGNED_BY_FREEPIK">
</g>
</svg>
