<?xml version="1.0" encoding="utf-8"?>
<!-- Generator: Adobe Illustrator 16.0.0, SVG Export Plug-In . SVG Version: 6.00 Build 0)  -->
<!DOCTYPE svg PUBLIC "-//W3C//DTD SVG 1.1//EN" "http://www.w3.org/Graphics/SVG/1.1/DTD/svg11.dtd">
<svg version="1.1" id="Layer_1" focusable="false" xmlns="http://www.w3.org/2000/svg" xmlns:xlink="http://www.w3.org/1999/xlink"
	 x="0px" y="0px" width="192.76px" height="192.759px" viewBox="0 109.13 192.76 192.759"
	 enable-background="new 0 109.13 192.76 192.759" xml:space="preserve">
<path fill="#7C7B7B" d="M132.917,205.51l54.799-54.799c6.725-6.725,6.725-17.628,0-24.358l-12.179-12.179
	c-6.725-6.725-17.628-6.725-24.357,0l-54.8,54.799l-54.8-54.799c-6.725-6.725-17.627-6.725-24.357,0L5.043,126.353
	c-6.725,6.725-6.725,17.628,0,24.358l54.8,54.799l-54.8,54.8c-6.725,6.725-6.725,17.628,0,24.358l12.179,12.178
	c6.725,6.726,17.633,6.726,24.357,0l54.8-54.799l54.8,54.799c6.725,6.726,17.633,6.726,24.357,0l12.179-12.178
	c6.725-6.725,6.725-17.628,0-24.358L132.917,205.51z"/>
</svg>
