<?xml version="1.0" encoding="utf-8"?>
<!-- Generator: Adobe Illustrator 16.0.0, SVG Export Plug-In . SVG Version: 6.00 Build 0)  -->
<!DOCTYPE svg PUBLIC "-//W3C//DTD SVG 1.1//EN" "http://www.w3.org/Graphics/SVG/1.1/DTD/svg11.dtd">
<svg version="1.1" id="Layer_1" focusable="false" xmlns="http://www.w3.org/2000/svg" xmlns:xlink="http://www.w3.org/1999/xlink"
	 x="0px" y="0px" width="192.76px" height="184.128px" viewBox="0 113.446 192.76 184.128"
	 enable-background="new 0 113.446 192.76 184.128" xml:space="preserve">
<path fill="#F85036" d="M182.888,175.125l-52.639-7.664l-23.522-47.611c-2.114-4.254-6.239-6.405-10.365-6.405
	c-4.1,0-8.196,2.122-10.317,6.405l-23.531,47.607l-52.642,7.656c-9.44,1.367-13.223,12.979-6.379,19.632l38.081,37.042
	l-9.012,52.318c-1.28,7.474,4.686,13.468,11.368,13.468c1.773,0,3.596-0.42,5.348-1.349l47.093-24.698l47.089,24.705
	c1.748,0.918,3.568,1.335,5.334,1.335c6.689,0,12.666-5.974,11.386-13.45l-9.001-52.322l38.088-37.034
	C196.111,188.108,192.328,176.492,182.888,175.125L182.888,175.125z M139.106,219.432l-6.516,6.336l1.539,8.947l7.02,40.8
	l-36.729-19.272l-8.048-4.222l0.011-114.07l18.352,37.146l4.021,8.139l8.994,1.309l41.08,5.98L139.106,219.432z"/>
</svg>
